<svg width="290" height="95" viewBox="0 0 290 95" fill="none" xmlns="http://www.w3.org/2000/svg">
<rect width="290" height="95" rx="10" fill="#FFD36A"/>
<path d="M24.058 47.95C24.334 46.3707 24.932 44.96 25.852 43.718C26.7873 42.4607 27.9297 41.487 29.279 40.797C30.6437 40.0917 32.0927 39.739 33.626 39.739C35.42 39.739 36.915 40.199 38.111 41.119C39.307 42.039 40.0277 43.3117 40.273 44.937H36.57C36.3247 44.201 35.903 43.649 35.305 43.281C34.707 42.8977 33.971 42.706 33.097 42.706C32.1617 42.706 31.2877 42.9207 30.475 43.35C29.6777 43.7793 29.003 44.3927 28.451 45.19C27.9143 45.9873 27.554 46.9073 27.37 47.95C27.2933 48.4407 27.255 48.847 27.255 49.169C27.255 50.411 27.6077 51.3923 28.313 52.113C29.0337 52.8337 30.0073 53.194 31.234 53.194C32.108 53.194 32.913 53.0023 33.649 52.619C34.385 52.2357 35.006 51.676 35.512 50.94H39.215C38.387 52.5807 37.214 53.861 35.696 54.781C34.1933 55.6857 32.545 56.138 30.751 56.138C29.4017 56.138 28.2057 55.8697 27.163 55.333C26.1357 54.781 25.3383 54.0067 24.771 53.01C24.2037 52.0133 23.92 50.871 23.92 49.583C23.92 49.0463 23.966 48.502 24.058 47.95ZM57.2143 39.946L54.3853 56H51.1423L52.3613 49.123H45.5073L44.2883 56H41.0453L43.8973 39.946H47.1173L45.9443 46.593H52.8213L53.9943 39.946H57.2143ZM63.1666 42.453L62.4306 46.616H67.8356L67.3986 49.1H61.9936L61.2346 53.447H67.3296L66.8696 56H57.5316L60.3836 39.923H69.6986L69.2616 42.453H63.1666ZM70.4398 47.95C70.7158 46.3707 71.3138 44.96 72.2338 43.718C73.1692 42.4607 74.3115 41.487 75.6608 40.797C77.0255 40.0917 78.4745 39.739 80.0078 39.739C81.8018 39.739 83.2968 40.199 84.4928 41.119C85.6888 42.039 86.4095 43.3117 86.6548 44.937H82.9518C82.7065 44.201 82.2848 43.649 81.6868 43.281C81.0888 42.8977 80.3528 42.706 79.4788 42.706C78.5435 42.706 77.6695 42.9207 76.8568 43.35C76.0595 43.7793 75.3848 44.3927 74.8328 45.19C74.2962 45.9873 73.9358 46.9073 73.7518 47.95C73.6752 48.4407 73.6368 48.847 73.6368 49.169C73.6368 50.411 73.9895 51.3923 74.6948 52.113C75.4155 52.8337 76.3892 53.194 77.6158 53.194C78.4898 53.194 79.2948 53.0023 80.0308 52.619C80.7668 52.2357 81.3878 51.676 81.8938 50.94H85.5968C84.7688 52.5807 83.5958 53.861 82.0778 54.781C80.5752 55.6857 78.9268 56.138 77.1328 56.138C75.7835 56.138 74.5875 55.8697 73.5448 55.333C72.5175 54.781 71.7202 54.0067 71.1528 53.01C70.5855 52.0133 70.3018 50.871 70.3018 49.583C70.3018 49.0463 70.3478 48.502 70.4398 47.95ZM95.2011 47.904L100.583 56H96.4891L91.9351 48.847L90.6701 56H87.4271L90.2791 39.946H93.4991L92.2341 47.145L99.3411 39.946H103.228L95.2011 47.904ZM122.609 39.946L122.149 42.476H117.894L115.502 56H112.259L114.651 42.476H110.373L110.833 39.946H122.609ZM138.276 39.946L135.447 56H132.204L133.423 49.123H126.569L125.35 56H122.107L124.959 39.946H128.179L127.006 46.593H133.883L135.056 39.946H138.276ZM144.665 39.946L141.836 56H138.593L141.445 39.946H144.665ZM151.09 56.161C149.48 56.161 148.153 55.8007 147.111 55.08C146.083 54.344 145.57 53.3167 145.57 51.998C145.57 51.86 145.585 51.653 145.616 51.377H148.905C148.843 52.021 149.012 52.55 149.411 52.964C149.825 53.378 150.423 53.585 151.205 53.585C151.987 53.585 152.6 53.424 153.045 53.102C153.505 52.7647 153.735 52.2893 153.735 51.676C153.735 51.1087 153.497 50.6563 153.022 50.319C152.562 49.9817 151.833 49.606 150.837 49.192C149.917 48.8087 149.165 48.456 148.583 48.134C148.015 47.812 147.525 47.3673 147.111 46.8C146.712 46.2173 146.513 45.489 146.513 44.615C146.513 43.6183 146.766 42.752 147.272 42.016C147.793 41.28 148.498 40.7127 149.388 40.314C150.292 39.9153 151.32 39.716 152.47 39.716C153.604 39.716 154.586 39.9077 155.414 40.291C156.257 40.659 156.886 41.188 157.3 41.878C157.729 42.568 157.913 43.373 157.852 44.293H154.425L154.448 44.04C154.448 43.534 154.256 43.12 153.873 42.798C153.505 42.476 152.983 42.315 152.309 42.315C151.588 42.315 151.005 42.4837 150.561 42.821C150.116 43.1583 149.894 43.6183 149.894 44.201C149.894 44.5843 150.016 44.9217 150.262 45.213C150.522 45.489 150.837 45.7343 151.205 45.949C151.573 46.1483 152.102 46.409 152.792 46.731C153.696 47.1297 154.44 47.5053 155.023 47.858C155.605 48.2107 156.104 48.6783 156.518 49.261C156.932 49.8437 157.139 50.5567 157.139 51.4C157.139 52.32 156.886 53.1403 156.38 53.861C155.889 54.5817 155.184 55.149 154.264 55.563C153.359 55.9617 152.301 56.161 151.09 56.161ZM172.708 56.161C171.359 56.161 170.163 55.8773 169.12 55.31C168.093 54.7273 167.295 53.93 166.728 52.918C166.161 51.8907 165.877 50.7177 165.877 49.399C165.877 47.559 166.283 45.903 167.096 44.431C167.924 42.959 169.059 41.809 170.5 40.981C171.957 40.1377 173.59 39.716 175.399 39.716C176.764 39.716 177.96 39.9997 178.987 40.567C180.03 41.1343 180.835 41.9317 181.402 42.959C181.969 43.971 182.253 45.1287 182.253 46.432C182.253 48.3027 181.847 49.974 181.034 51.446C180.221 52.918 179.087 54.0757 177.63 54.919C176.173 55.747 174.533 56.161 172.708 56.161ZM173.168 53.194C174.318 53.194 175.33 52.9027 176.204 52.32C177.093 51.7373 177.776 50.9553 178.251 49.974C178.742 48.9773 178.987 47.8963 178.987 46.731C178.987 45.4737 178.634 44.4847 177.929 43.764C177.224 43.0433 176.235 42.683 174.962 42.683C173.827 42.683 172.815 42.9743 171.926 43.557C171.052 44.1397 170.37 44.9217 169.879 45.903C169.404 46.8843 169.166 47.9577 169.166 49.123C169.166 50.3803 169.511 51.377 170.201 52.113C170.906 52.8337 171.895 53.194 173.168 53.194ZM189.271 39.946L187.523 49.859C187.462 50.2883 187.431 50.5873 187.431 50.756C187.431 51.5533 187.669 52.1667 188.144 52.596C188.62 53.01 189.294 53.217 190.168 53.217C191.211 53.217 192.062 52.9333 192.721 52.366C193.396 51.7833 193.833 50.9477 194.032 49.859L195.78 39.946H199.023L197.275 49.859C197.03 51.239 196.532 52.4043 195.78 53.355C195.029 54.2903 194.117 54.9957 193.043 55.471C191.985 55.931 190.843 56.161 189.616 56.161C187.991 56.161 186.672 55.7393 185.66 54.896C184.664 54.0527 184.165 52.8413 184.165 51.262C184.165 50.8327 184.211 50.365 184.303 49.859L186.051 39.946H189.271ZM213.06 39.946L212.6 42.476H208.345L205.953 56H202.71L205.102 42.476H200.824L201.284 39.946H213.06Z" fill="white"/>
<g clip-path="url(#clip0)">
<path d="M247 23C253.63 23 259.989 25.6339 264.678 30.3223C269.366 35.0107 272 41.3696 272 48C272 54.6304 269.366 60.9893 264.678 65.6777C259.989 70.3661 253.63 73 247 73C240.37 73 234.011 70.3661 229.322 65.6777C224.634 60.9893 222 54.6304 222 48C222 41.3696 224.634 35.0107 229.322 30.3223C234.011 25.6339 240.37 23 247 23ZM236.062 46.4375C235.648 46.4375 235.251 46.6021 234.958 46.8951C234.665 47.1882 234.5 47.5856 234.5 48C234.5 48.4144 234.665 48.8118 234.958 49.1049C235.251 49.3979 235.648 49.5625 236.062 49.5625H254.166L247.456 56.2687C247.163 56.5621 246.998 56.9601 246.998 57.375C246.998 57.7899 247.163 58.1879 247.456 58.4813C247.75 58.7746 248.148 58.9395 248.562 58.9395C248.977 58.9395 249.375 58.7746 249.669 58.4813L259.044 49.1063C259.189 48.9611 259.305 48.7887 259.383 48.5989C259.462 48.409 259.503 48.2055 259.503 48C259.503 47.7945 259.462 47.591 259.383 47.4011C259.305 47.2113 259.189 47.0389 259.044 46.8937L249.669 37.5187C249.375 37.2254 248.977 37.0605 248.562 37.0605C248.148 37.0605 247.75 37.2254 247.456 37.5187C247.163 37.8121 246.998 38.2101 246.998 38.625C246.998 39.0399 247.163 39.4379 247.456 39.7313L254.166 46.4375H236.062Z" fill="#EE646A"/>
</g>
<defs>
<clipPath id="clip0">
<rect width="50" height="50" fill="white" transform="translate(222 73) rotate(-90)"/>
</clipPath>
</defs>
</svg>
